# xmcd CD database file
#
# Track frame offsets:
#	150
#	13657
#	34491
#	53906
#	74334
#	89385
#	108309
#	126994
#	143078
#	160935
#
# Disc length: 2333 seconds
#
# Revision: 0
# Processed by: cddbd v1.5.2PL0 Copyright (c) Steve Scherf et al.
# Submitted via: CDex 1.70beta2
#
DISCID=8b091b0a
DTITLE=Pam MacBeth - A Part Of Me
DYEAR=2006
DGENRE=Country
TTITLE0=She Wears It Well
TTITLE1=Second Chance
TTITLE2=A Part Of Me
TTITLE3=Now Or Never
TTITLE4=I Feel A Honky Tonk Coming On
TTITLE5=Yesterday's Memories
TTITLE6=Woman I Am
TTITLE7=Use Me
TTITLE8=Enough
TTITLE9=Son Of A Preacher Man
EXTD=YEAR: 2006
EXTT0=
EXTT1=
EXTT2=
EXTT3=
EXTT4=
EXTT5=
EXTT6=
EXTT7=
EXTT8=
EXTT9=
PLAYORDER=
